<svg width="40" height="40" viewBox="0 0 40 40" fill="none" xmlns="http://www.w3.org/2000/svg">
<mask id="mask0_95_493" style="mask-type:alpha" maskUnits="userSpaceOnUse" x="0" y="0" width="40" height="40">
<rect width="40" height="40" fill="#D9D9D9"/>
</mask>
<g mask="url(#mask0_95_493)">
<path d="M20.2917 25.9167C20.0694 25.9167 19.8611 25.8819 19.6667 25.8125C19.4722 25.7431 19.2917 25.625 19.125 25.4583L11.4583 17.7917C11.1528 17.4861 11 17.0972 11 16.625C11 16.1528 11.1528 15.7639 11.4583 15.4583C11.7639 15.1528 12.1528 15 12.625 15C13.0972 15 13.4861 15.1528 13.7917 15.4583L20.2917 21.9583L26.7917 15.4583C27.0972 15.1528 27.4861 15 27.9583 15C28.4306 15 28.8194 15.1528 29.125 15.4583C29.4306 15.7639 29.5833 16.1528 29.5833 16.625C29.5833 17.0972 29.4306 17.4861 29.125 17.7917L21.4583 25.4583C21.2917 25.625 21.1111 25.7431 20.9167 25.8125C20.7222 25.8819 20.5139 25.9167 20.2917 25.9167Z" fill="#D4CDE2" fill-opacity="0.88"/>
</g>
</svg>
