<svg width="386" height="307" viewBox="0 0 386 307" fill="none" xmlns="http://www.w3.org/2000/svg">
<mask id="mask0_139_859" style="mask-type:luminance" maskUnits="userSpaceOnUse" x="127" y="163" width="130" height="143">
<path d="M127.562 163.323H256.896V305.979H127.562V163.323Z" fill="white"/>
</mask>
<g mask="url(#mask0_139_859)">
<path d="M256.839 169.235V305.714H128.276V169.235C128.276 166.521 130.479 164.318 133.193 164.318H251.922C254.636 164.318 256.839 166.521 256.839 169.235Z" fill="#348800"/>
</g>
<mask id="mask1_139_859" style="mask-type:luminance" maskUnits="userSpaceOnUse" x="256" y="217" width="130" height="90">
<path d="M256 217H385.25V306.323H256V217Z" fill="white"/>
</mask>
<g mask="url(#mask1_139_859)">
<path d="M385.453 222.031V301.141C385.453 303.854 383.255 306.057 380.542 306.057H256.896V217.12H380.542C383.255 217.12 385.453 219.318 385.453 222.031Z" fill="#6842FF"/>
</g>
<mask id="mask2_139_859" style="mask-type:luminance" maskUnits="userSpaceOnUse" x="0" y="216" width="129" height="90">
<path d="M0 216.656H128.896V305.979H0V216.656Z" fill="white"/>
</mask>
<g mask="url(#mask2_139_859)">
<path d="M128.656 216.776V305.714H5.01042C2.29687 305.714 0.09375 303.511 0.09375 300.797V221.688C0.09375 218.974 2.29687 216.776 5.01042 216.776H128.656Z" fill="#FF931F"/>
</g>
<path d="M226.047 235C226.047 253.505 211.052 268.5 192.542 268.5C174.037 268.5 159.068 253.505 159.068 235C159.068 216.526 174.037 201.531 192.542 201.531C211.052 201.531 226.047 216.526 226.047 235Z" fill="#E1F7C8"/>
<path d="M90.6094 261.229C90.6094 275.729 78.8646 287.474 64.3646 287.474C49.8646 287.474 38.1406 275.729 38.1406 261.229C38.1406 246.755 49.8646 235.01 64.3646 235.01C78.8646 235.01 90.6094 246.755 90.6094 261.229Z" fill="#FFEBC1"/>
<path d="M346.974 261.229C346.974 275.729 335.224 287.474 320.729 287.474C306.229 287.474 294.505 275.729 294.505 261.229C294.505 246.755 306.229 235.01 320.729 235.01C335.224 235.01 346.974 246.755 346.974 261.229Z" fill="#E8E3FF"/>
<path d="M67.1616 86.4949L81.3647 115.266C81.9532 116.464 83.0939 117.297 84.4168 117.484L116.177 122.099C119.5 122.583 120.833 126.672 118.422 129.021L95.4428 151.417C94.4897 152.349 94.0522 153.688 94.2814 155.005L99.7032 186.636C100.266 189.948 96.7866 192.474 93.8178 190.906L65.4116 175.979C64.2293 175.354 62.8178 175.354 61.6303 175.979L33.2293 190.906C30.2553 192.474 26.7762 189.948 27.3439 186.636L32.7657 155.005C32.9949 153.688 32.5574 152.349 31.5991 151.417L8.6199 129.021C6.21365 126.672 7.54178 122.583 10.8699 122.099L42.6251 117.484C43.9532 117.297 45.0887 116.464 45.6824 115.266L59.8855 86.4949C61.3699 83.474 65.6772 83.474 67.1616 86.4949Z" fill="#FF931F"/>
<path d="M323.354 86.4949L337.552 115.266C338.146 116.464 339.281 117.297 340.609 117.484L372.37 122.099C375.693 122.583 377.026 126.672 374.615 129.021L351.635 151.417C350.677 152.349 350.245 153.688 350.469 155.005L355.896 186.636C356.458 189.948 352.979 192.474 350.01 190.906L321.604 175.979C320.422 175.354 319.01 175.354 317.823 175.979L289.422 190.906C286.448 192.474 282.969 189.948 283.536 186.636L288.958 155.005C289.188 153.688 288.75 152.349 287.792 151.417L264.813 129.021C262.406 126.672 263.734 122.583 267.063 122.099L298.818 117.484C300.146 117.297 301.281 116.464 301.875 115.266L316.073 86.4949C317.563 83.474 321.87 83.474 323.354 86.4949Z" fill="#6842FF"/>
<path d="M196.198 2.26563L210.396 31.0365C210.99 32.2344 212.125 33.0677 213.453 33.2552L245.214 37.8698C248.537 38.3542 249.865 42.4479 247.458 44.7969L224.479 67.1875C223.521 68.125 223.089 69.4635 223.313 70.7813L228.734 102.411C229.302 105.719 225.823 108.25 222.849 106.682L194.448 91.7552C193.261 91.1302 191.849 91.1302 190.667 91.7552L162.266 106.682C159.292 108.25 155.813 105.719 156.375 102.411L161.802 70.7813C162.026 69.4635 161.594 68.125 160.636 67.1875L137.656 44.7969C135.245 42.4479 136.578 38.3542 139.901 37.8698L171.662 33.2552C172.99 33.0677 174.125 32.2344 174.719 31.0365L188.917 2.26563C190.406 -0.755208 194.708 -0.755208 196.198 2.26563Z" fill="#348800"/>
<path d="M196.884 220.565V249.656H189.867V227.128H189.697L183.191 231.105V225.026L190.365 220.565H196.884Z" fill="#348800"/>
<path d="M53.6202 276.656V271.599L64.231 262.31C65.0265 261.59 65.7036 260.932 66.2623 260.335C66.821 259.729 67.2471 259.123 67.5407 258.517C67.8342 257.902 67.981 257.234 67.981 256.514C67.981 255.709 67.8058 255.023 67.4555 254.455C67.1051 253.877 66.6221 253.432 66.0066 253.119C65.3911 252.807 64.6856 252.651 63.8901 252.651C63.0852 252.651 62.3797 252.816 61.7736 253.148C61.1676 253.47 60.6941 253.938 60.3532 254.554C60.0217 255.17 59.856 255.918 59.856 256.798H53.1941C53.1941 254.819 53.6392 253.11 54.5293 251.67C55.4195 250.231 56.6695 249.123 58.2793 248.347C59.8986 247.561 61.7784 247.168 63.9185 247.168C66.125 247.168 68.0426 247.537 69.6714 248.276C71.3002 249.014 72.5596 250.046 73.4498 251.372C74.3494 252.688 74.7992 254.218 74.7992 255.96C74.7992 257.068 74.5767 258.167 74.1316 259.256C73.6865 260.345 72.8863 261.547 71.731 262.864C70.5852 264.18 68.9564 265.757 66.8447 267.594L63.3645 270.804V270.989H75.1543V276.656H53.6202Z" fill="#FF931F"/>
<path d="M320.37 276.398C318.154 276.398 316.19 276.019 314.475 275.261C312.771 274.494 311.426 273.438 310.441 272.094C309.457 270.749 308.955 269.201 308.936 267.449H316.01C316.038 268.083 316.242 268.647 316.62 269.139C316.999 269.622 317.515 270.001 318.169 270.276C318.822 270.55 319.565 270.688 320.399 270.688C321.232 270.688 321.966 270.541 322.6 270.247C323.244 269.944 323.746 269.532 324.106 269.011C324.466 268.481 324.641 267.875 324.632 267.193C324.641 266.511 324.447 265.905 324.049 265.375C323.652 264.845 323.088 264.433 322.359 264.139C321.639 263.846 320.787 263.699 319.802 263.699H316.975V258.699H319.802C320.664 258.699 321.422 258.557 322.075 258.273C322.738 257.989 323.254 257.591 323.623 257.08C323.993 256.559 324.172 255.962 324.163 255.29C324.172 254.636 324.016 254.063 323.694 253.571C323.382 253.069 322.941 252.681 322.373 252.406C321.815 252.132 321.166 251.994 320.427 251.994C319.651 251.994 318.945 252.132 318.311 252.406C317.686 252.681 317.189 253.069 316.819 253.571C316.45 254.073 316.256 254.655 316.237 255.318H309.518C309.537 253.585 310.02 252.061 310.967 250.744C311.914 249.419 313.202 248.382 314.831 247.634C316.469 246.885 318.334 246.511 320.427 246.511C322.511 246.511 324.343 246.876 325.924 247.605C327.506 248.334 328.737 249.329 329.618 250.588C330.498 251.838 330.939 253.254 330.939 254.835C330.948 256.473 330.413 257.823 329.333 258.884C328.263 259.944 326.886 260.598 325.2 260.844V261.071C327.454 261.336 329.154 262.065 330.299 263.259C331.455 264.452 332.028 265.943 332.018 267.733C332.018 269.419 331.521 270.915 330.527 272.222C329.542 273.519 328.169 274.542 326.407 275.29C324.655 276.028 322.643 276.398 320.37 276.398Z" fill="#6842FF"/>
</svg>
