<svg width="284" height="244" viewBox="0 0 284 244" fill="none" xmlns="http://www.w3.org/2000/svg">
<mask id="mask0_139_617" style="mask-type:luminance" maskUnits="userSpaceOnUse" x="100" y="61" width="185" height="163">
<path d="M100.665 61.2595H284V223.623H100.665V61.2595Z" fill="white"/>
</mask>
<g mask="url(#mask0_139_617)">
<path d="M284 142.765C284 187.294 243.123 223.391 192.699 223.391C142.276 223.391 101.399 187.294 101.399 142.765C101.399 98.2357 142.276 62.1383 192.699 62.1383C243.123 62.1383 284 98.2357 284 142.765Z" fill="#C3B6F8"/>
</g>
<mask id="mask1_139_617" style="mask-type:luminance" maskUnits="userSpaceOnUse" x="0" y="0" width="184" height="163">
<path d="M0 0H183.439V162.074H0V0Z" fill="white"/>
</mask>
<g mask="url(#mask1_139_617)">
<path d="M182.705 80.6638C182.705 125.189 141.828 161.29 91.4001 161.29C40.9765 161.29 0.0994873 125.189 0.0994873 80.6638C0.0994873 36.1348 40.9765 0.0373535 91.4001 0.0373535C141.828 0.0373535 182.705 36.1348 182.705 80.6638Z" fill="#E69800"/>
</g>
<path d="M103.206 117.648C103.206 121.503 102.232 124.347 100.284 126.184C98.3352 128.016 95.591 128.936 92.0551 128.936C88.432 128.936 85.6422 128.016 83.6898 126.184C81.7456 124.347 80.7715 121.503 80.7715 117.648C80.7715 113.752 81.7456 110.916 83.6898 109.15C85.6422 107.385 88.432 106.497 92.0551 106.497C95.819 106.497 98.6171 107.385 100.453 109.15C102.286 110.916 103.206 113.752 103.206 117.648ZM123.058 60.4015C123.058 62.7601 122.639 64.9116 121.806 66.8599C120.965 68.8082 119.887 70.5989 118.573 72.2322C117.254 73.8613 115.795 75.3578 114.187 76.7174C112.574 78.0771 111.016 79.3248 109.494 80.4565C107.973 81.5923 106.572 82.6452 105.279 83.6194C103.985 84.5935 103.024 85.5097 102.389 86.3719C102.12 86.7367 101.801 87.288 101.436 88.0383C101.075 88.7886 100.893 89.6384 100.893 90.5877C100.893 93.0376 100.134 95.0522 98.6171 96.6398C97.0999 98.2275 94.7329 99.0192 91.512 99.0192C89.5637 99.0192 87.9678 98.7125 86.72 98.1031C85.4681 97.4896 84.4733 96.731 83.723 95.8232C82.981 94.9195 82.4545 93.9412 82.1643 92.9008C81.8659 91.8561 81.7208 90.9069 81.7208 90.0446C81.7208 86.9647 82.2431 84.378 83.2877 82.2929C84.3282 80.2078 85.6422 78.4087 87.2299 76.8874C88.8176 75.3702 90.513 74.0437 92.3286 72.912C94.1401 71.7762 95.8397 70.5989 97.4274 69.3761C99.015 68.1491 100.325 66.7811 101.37 65.2598C102.414 63.7426 102.937 61.8523 102.937 59.5848C102.937 57.2303 102.539 55.369 101.743 54.0094C100.951 52.6497 99.9768 51.6383 98.8202 50.9833C97.6678 50.3242 96.4657 49.9179 95.2179 49.7604C93.9702 49.6029 92.9173 49.52 92.0551 49.52C89.7876 49.52 87.9761 49.8475 86.6164 50.5066C85.2567 51.1657 84.2245 51.9906 83.524 52.9896C82.8193 53.9845 82.3674 55.0872 82.1643 56.2852C81.9571 57.4873 81.8576 58.6314 81.8576 59.7175C81.8576 61.4875 81.5177 62.9964 80.8378 64.24C80.158 65.4878 79.3082 66.4992 78.2884 67.2661C77.2646 68.0371 76.1536 68.605 74.9556 68.9657C73.7535 69.3305 72.655 69.5087 71.6559 69.5087C68.576 69.5087 66.0846 68.6631 64.1778 66.9594C62.2751 65.2598 61.3258 63.0752 61.3258 60.4015C61.3258 59.22 61.4585 57.7029 61.732 55.8458C62.0015 53.9845 62.5238 52.0155 63.2948 49.9304C64.0659 47.8453 65.1561 45.756 66.5572 43.6751C67.9625 41.59 69.7988 39.708 72.0663 38.0292C74.3297 36.3545 77.0987 34.9948 80.3611 33.9502C83.6235 32.9097 87.5242 32.3874 92.0551 32.3874C97.1787 32.3874 101.676 33.0797 105.552 34.46C109.428 35.8446 112.657 37.7722 115.24 40.2386C117.826 42.7134 119.771 45.6566 121.089 49.0764C122.403 52.5046 123.058 56.2727 123.058 60.4015Z" fill="white"/>
<path d="M34.1905 143.49C40.9391 151.449 35.2269 158.223 25.2698 173.175C22.5422 177.266 26.3393 182.535 31.0981 181.308C44.4875 177.855 61.3258 161.945 74.881 159.968C74.881 159.968 70.1304 141.492 59.5101 136.667C48.409 131.626 31.4753 140.294 34.1905 143.49Z" fill="#E69800"/>
<path d="M249.013 205.372C242.265 213.331 247.977 220.104 257.934 235.056C260.662 239.148 256.865 244.416 252.102 243.189C238.716 239.736 221.878 223.827 208.323 221.849C208.323 221.849 213.074 203.374 223.694 198.548C234.795 193.508 251.729 202.176 249.013 205.372Z" fill="#C3B6F8"/>
<path d="M162.579 162.447C162.579 156.08 156.9 150.919 149.891 150.919C142.885 150.919 137.206 156.08 137.206 162.447C137.206 168.81 142.885 173.971 149.891 173.971C156.9 173.971 162.579 168.81 162.579 162.447Z" fill="white"/>
<path d="M203.315 162.447C203.315 156.08 197.636 150.919 190.635 150.919C183.625 150.919 177.946 156.08 177.946 162.447C177.946 168.81 183.625 173.971 190.635 173.971C197.636 173.971 203.315 168.81 203.315 162.447Z" fill="white"/>
<path d="M244.06 162.447C244.06 156.08 238.381 150.919 231.371 150.919C224.365 150.919 218.686 156.08 218.686 162.447C218.686 168.81 224.365 173.971 231.371 173.971C238.381 173.971 244.06 168.81 244.06 162.447Z" fill="white"/>
</svg>
