<svg width="369" height="267" viewBox="0 0 369 267" fill="none" xmlns="http://www.w3.org/2000/svg">
<path d="M213.575 260.998L211.135 262.322C206.016 265.107 200.289 266.57 194.46 266.582L27.1218 266.803C21.2962 266.815 15.5568 265.363 10.4325 262.593L7.99536 261.276L213.575 260.998Z" fill="#CECDCE"/>
<path d="M213.575 260.998L210.899 262.455L10.6682 262.722L7.99536 261.276L213.575 260.998Z" fill="#A7A7A6"/>
<mask id="mask0_128_146" style="mask-type:luminance" maskUnits="userSpaceOnUse" x="0" y="257" width="223" height="5">
<path d="M0 257.302H222.071V261.716H0V257.302Z" fill="white"/>
</mask>
<g mask="url(#mask0_128_146)">
<path d="M1.8451 257.805L219.717 257.514C220.731 257.514 221.559 258.336 221.559 259.359C221.562 260.377 220.737 261.204 219.72 261.204L1.84798 261.495C0.82771 261.5 0 260.673 0 259.655C0 258.632 0.821962 257.81 1.8451 257.805Z" fill="#DCDCDC"/>
</g>
<mask id="mask1_128_146" style="mask-type:luminance" maskUnits="userSpaceOnUse" x="44" y="194" width="45" height="47">
<path d="M44.8054 194.028H88.1654V240.38H44.8054V194.028Z" fill="white"/>
</mask>
<g mask="url(#mask1_128_146)">
<path fill-rule="evenodd" clip-rule="evenodd" d="M47.2971 200.44L83.0036 194.401C83.7911 194.269 84.5239 194.453 85.1562 194.95C85.7828 195.45 86.1363 196.117 86.1966 196.916L88.1538 223.601C88.2515 224.938 87.4037 226.13 86.1046 226.472L75.8589 229.151L78.8421 239.854C78.8421 239.854 73.209 234.456 69.3694 230.847L59.1897 233.514C57.8303 233.867 56.4393 233.152 55.9306 231.844L45.1962 204.156C44.8887 203.354 44.949 202.543 45.3658 201.796C45.7911 201.049 46.455 200.583 47.2971 200.44Z" fill="#FF931F"/>
</g>
<path d="M61.6126 211.229L65.9006 210.036C65.5614 208.806 66.0644 207.803 67.3634 207.444C68.5389 207.116 69.493 207.659 69.8264 208.863C70.3869 210.803 68.7803 211.74 66.2799 212.433L64.6791 212.878L66.1822 217.813L70.1771 216.704L69.7603 214.66C73.2407 213.666 75.2008 211.105 74.2524 207.659C73.2264 203.946 70.0937 202.661 66.3834 203.69C62.1787 204.854 60.6526 208.044 61.6126 211.229ZM72.163 220.983C71.7721 219.566 70.3811 218.776 68.7803 219.221C67.1536 219.672 66.3661 221.066 66.757 222.483C67.1364 223.851 68.5274 224.639 70.1512 224.193C71.752 223.748 72.5424 222.345 72.163 220.983Z" fill="#FEFEFE"/>
<mask id="mask2_128_146" style="mask-type:luminance" maskUnits="userSpaceOnUse" x="131" y="194" width="44" height="47">
<path d="M131.574 194.028H174.417V240.38H131.574V194.028Z" fill="white"/>
</mask>
<g mask="url(#mask2_128_146)">
<path fill-rule="evenodd" clip-rule="evenodd" d="M171.819 198.494L135.603 194.304C134.802 194.203 134.077 194.433 133.471 194.965C132.862 195.494 132.543 196.189 132.522 196.994L131.948 223.929C131.922 225.28 132.836 226.432 134.155 226.699L144.596 228.864L142.153 239.776C142.153 239.776 147.533 234.057 151.209 230.226L161.587 232.367C162.97 232.654 164.329 231.87 164.772 230.519L174.124 202.124C174.397 201.305 174.293 200.486 173.83 199.759C173.365 199.031 172.672 198.595 171.819 198.494Z" fill="#6842FF"/>
</g>
<path d="M147.945 215.068L152.399 215.951L155.92 201.311L150.238 200.184L147.945 215.068ZM152.359 221.193C152.681 219.56 151.666 218.049 149.827 217.681C147.953 217.313 146.444 218.322 146.125 219.96C145.812 221.532 146.824 223.047 148.698 223.412C150.537 223.779 152.046 222.765 152.359 221.193Z" fill="#FEFEFE"/>
<path fill-rule="evenodd" clip-rule="evenodd" d="M110.649 186.389C124.694 186.389 136.081 197.813 136.081 211.904C136.081 224.466 127.025 234.908 115.101 237.023L102.82 252.358L105.746 236.939C94.0431 234.646 85.217 224.311 85.217 211.904C85.217 197.813 96.6038 186.389 110.649 186.389Z" fill="#348800"/>
<path d="M99.0777 210.686L105.576 216.856L123.596 201.469L127.194 205.708L105.366 224.343L95.2524 214.726L99.0777 210.686Z" fill="#FEFEFE"/>
<path d="M195.961 37.2692C206.011 39.0537 206.632 37.7938 206.632 37.7938C206.632 37.7938 199.507 36.9602 204.231 27.8803C215.39 30.9676 223.828 29.2815 223.828 29.2815C223.828 29.2815 225.363 28.699 226.06 28.4875C228.224 27.8446 233.128 26.7843 234.32 26.5687C235.083 26.4318 240.422 26.0607 242.657 25.872C246.059 25.5748 249.514 23.5356 267.98 22.4039C285.876 21.3138 344.856 66.037 344.856 66.037L313.012 92.9698C313.012 92.9698 307.882 87.6955 306.887 87.4802C305.887 87.2674 298.101 91.1653 288.437 90.8369C278.774 90.5029 271.199 88.5296 269.327 89.1729C267.449 89.8155 251.587 94.071 248.716 94.5015C245.839 94.9285 237.163 92.3105 234.315 91.0041C231.465 89.6974 223.323 89.7113 223.323 89.7113C223.323 89.7113 221.785 80.7206 234.139 78.1478C239.533 77.0278 245.059 79.0963 245.059 79.0963C245.059 79.0963 247.854 74.9976 255.045 75.4947C262.239 75.995 262.975 61.1873 261.218 58.0265C259.469 54.8606 256.971 48.9618 249.338 49.3872C243.534 49.7053 242.571 51.7635 237.208 50.8464C236.236 56.2063 222.972 61.3098 222.972 61.3098C222.972 61.3098 214.484 72.5394 208.429 71.5914C202.378 70.6408 203.039 65.9122 203.039 65.9122C203.039 65.9122 207.409 63.3665 209.712 60.7284C210.411 59.9267 210.895 58.9081 212.214 56.7712C212.811 55.8095 213.561 54.9358 214.438 54.2163C218.339 51.0439 220.492 47.7278 220.492 47.7278C220.492 47.7278 210.854 50.5317 203.612 48.6332C196.372 46.7321 193.918 45.2097 195.961 37.2692Z" fill="#F8BA84"/>
<path d="M248.547 93.6388C251.418 93.2112 267.82 88.1754 269.698 87.5356C271.576 86.8902 279.146 88.8627 288.808 89.1968C296.465 89.4575 303.576 87.3253 306.699 86.5371C308.069 86.1895 309.284 85.3572 310.068 84.1778C310.425 83.6418 310.679 83.1194 310.829 82.6453C310.905 82.394 310.657 83.7362 310.573 84.0011C310.308 84.8811 310.053 85.8722 308.8 86.642C310.204 88.0817 313.03 92.9661 313.03 92.9661C313.03 92.9661 307.903 87.6921 306.904 87.4794C305.911 87.2644 298.119 91.1644 288.459 90.8307C278.796 90.4967 271.222 88.5295 269.345 89.1692C267.47 89.8093 251.611 94.068 248.737 94.4953C245.863 94.9226 237.183 92.31 234.339 91.004C231.488 89.6973 245.674 94.0662 248.547 93.6388Z" fill="#EAA366"/>
<path d="M224.071 86.0903C224.451 85.4643 224.906 85.0241 225.435 84.9343C227.794 84.5289 235.309 85.4848 234.609 89.7194C234.538 90.1625 234.337 90.5349 234.055 90.8599C230.571 89.8621 223.341 89.7077 223.341 89.7077C223.341 89.7077 223.325 89.6044 223.306 89.4198C223.209 88.256 223.46 87.082 224.071 86.0903Z" fill="#F8D8BF"/>
<path d="M206.649 37.7873C206.042 37.7086 201.232 36.7654 203.04 30.7795C202.081 35.5098 204.613 37.2964 206.649 37.7873Z" fill="#EAA366"/>
<path d="M208.759 71.1157C214.857 71.7245 222.861 61.085 222.861 61.085C222.861 61.085 235.997 56.1255 236.974 50.7662C242.337 51.689 243.905 48.0652 249.715 47.7478C257.339 47.3214 259.836 53.2258 261.595 56.387C262.533 58.0716 262.76 63.072 261.67 67.2974C262.339 63.4931 262.061 59.494 261.242 58.0206C259.486 54.8598 256.988 48.961 249.362 49.3814C243.56 49.7055 242.595 51.7605 237.232 50.8406C236.254 56.1998 222.994 61.3036 222.994 61.3036C222.994 61.3036 214.507 72.5393 208.45 71.5852C202.396 70.6372 203.063 65.9064 203.063 65.9064C203.063 65.9064 202.975 70.5389 208.759 71.1157Z" fill="#EAA366"/>
<path d="M203.066 47.9452C210.312 49.8441 220.517 47.7191 220.517 47.7191C217.688 48.5658 209.403 50.1371 203.636 48.6245C196.528 46.7596 194.034 45.2555 195.878 37.6991C194.793 43.8588 196.503 46.2182 203.066 47.9452Z" fill="#EAA366"/>
<path d="M209.736 60.7255C210.044 60.4991 210.885 61.2516 211.05 61.613C212.237 64.1902 208.218 68.1734 205.921 68.4964C205.25 68.5923 204.389 68.0227 203.51 67.1702C203.176 66.8463 203.006 66.3801 203.062 65.9179L203.063 65.9065C203.063 65.9065 206.837 62.8345 209.736 60.7255Z" fill="#F8D8BF"/>
<path d="M195.988 37.2666C201.678 37.8727 203.536 38.1452 205.096 38.1939C205.216 43.4043 198.934 42.9297 196.821 41.9607C196.816 41.96 196.816 41.9543 196.811 41.9536C196.084 41.6173 195.632 40.8769 195.65 40.0715C195.667 39.2601 195.689 38.429 195.988 37.2666Z" fill="#F8D8BF"/>
<path d="M204.286 27.8811C207.537 28.5064 210.075 28.9013 212.77 29.4772C211.651 32.3532 203.528 30.1404 203.528 30.1404C203.528 30.1404 203.814 29.0604 204.286 27.8811Z" fill="#F8D8BF"/>
<path d="M258.812 26.3499C255.225 27.4151 251.671 28.5942 248.134 29.8161C244.598 31.035 241.085 32.3205 237.587 33.657C235.841 34.3357 234.097 35.0204 232.367 35.7561C231.934 35.9442 231.505 36.1359 231.073 36.3357C230.862 36.4319 230.646 36.542 230.428 36.6461C230.214 36.7679 229.999 36.8666 229.738 37.0639C229.003 37.7396 228.396 38.4251 227.759 39.1272C225.255 41.9177 222.844 44.7829 220.517 47.7191C223.16 45.067 225.736 42.346 228.339 39.6717C228.668 39.3379 228.995 39.0066 229.323 38.6814C229.652 38.3562 229.986 38.0316 230.31 37.7463C230.432 37.6684 230.636 37.5627 230.833 37.4648C231.041 37.3711 231.241 37.2736 231.457 37.1838C231.876 36.9997 232.308 36.823 232.743 36.6495C234.464 35.9445 236.203 35.2737 237.948 34.6064L248.409 30.5612C251.893 29.1971 255.369 27.8116 258.812 26.3499Z" fill="#EAA366"/>
<path d="M206.65 37.7873C209.69 37.3193 212.702 36.7348 215.7 36.088C218.701 35.4473 221.683 34.7407 224.653 33.9254C225.394 33.7105 226.132 33.4953 226.87 33.257C227.241 33.1337 227.612 33.0075 227.985 32.8614C228.17 32.7939 228.363 32.7099 228.55 32.6167C228.652 32.5681 228.783 32.4855 228.868 32.4291C228.924 32.3982 228.966 32.3627 229.045 32.3288C229.331 32.1895 229.684 32.0699 230.041 31.9709C230.395 31.8687 230.761 31.7825 231.13 31.6995C231.865 31.536 232.611 31.3913 233.363 31.2531C236.363 30.7193 239.4 30.2826 242.431 29.7961C239.361 29.8611 236.295 30.0744 233.238 30.4651C232.473 30.5642 231.71 30.6751 230.946 30.8206C230.564 30.8962 230.183 30.9778 229.799 31.0705C229.413 31.1689 229.03 31.2734 228.626 31.4592C228.526 31.4935 228.409 31.575 228.301 31.6343L228.115 31.7393C227.961 31.8106 227.802 31.8812 227.627 31.9441C227.29 32.0743 226.929 32.1901 226.568 32.303C225.846 32.5288 225.114 32.7419 224.378 32.9428C222.912 33.36 221.435 33.7497 219.952 34.1388L215.512 35.3185C212.557 36.1095 209.595 36.9083 206.65 37.7873Z" fill="#EAA366"/>
<path d="M226.478 28.8128C227.361 28.6671 228.251 28.5339 229.137 28.4118C230.026 28.29 230.914 28.171 231.801 28.0635C232.693 27.9652 234.504 28.0266 234.504 28.0266C234.504 28.0266 236.41 28.2993 236.782 28.3614C237.526 28.4798 238.278 28.5383 239.036 28.5629C239.795 28.5847 240.556 28.5604 241.318 28.5044C241.7 28.4809 242.077 28.4278 242.463 28.3989L254.317 25.2884C253.948 25.4003 242.933 28.6523 242.556 28.7517C242.182 28.8341 241.751 28.8575 241.366 28.9242C240.985 28.9855 240.667 28.8633 240.281 28.9007C240.088 28.918 239.842 28.9406 239.649 28.955L238.974 28.955C238.195 28.9828 237.517 28.9418 236.733 28.8446C236.342 28.7919 235.929 28.7364 235.542 28.6349C235.154 28.5419 234.813 28.4864 234.553 28.4841C233.643 28.4673 232.768 28.6197 231.873 28.7176C230.983 28.8074 230.09 28.8882 229.195 28.963C228.303 29.0381 227.412 29.1046 226.517 29.1591C225.622 29.2107 223.41 29.4599 222.507 29.4787C223.391 29.2985 225.592 28.961 226.478 28.8128Z" fill="#EAA366"/>
<path d="M221.634 60.0459C221.593 59.9541 221.701 59.8687 221.777 59.9358C222.201 60.3138 222.738 60.7344 223.361 61.1568C223.13 61.2534 222.994 61.3036 222.994 61.3036C222.994 61.3036 222.976 61.3304 222.949 61.3647C222.338 60.8831 221.785 60.3767 221.634 60.0459Z" fill="#EAA366"/>
<path d="M243.571 81.4357C243.528 81.5289 243.39 81.4689 243.395 81.3623C243.445 80.3148 243.857 79.6812 244.543 78.9126C244.814 78.9972 244.989 79.0588 245.053 79.0809C244.414 79.916 243.911 80.7471 243.571 81.4357Z" fill="#EAA366"/>
<path d="M237.232 50.8406C237.206 50.9851 237.165 51.1279 237.119 51.27C236.206 50.9691 235.009 50.501 234.251 49.7759C234.178 49.7035 234.263 49.5748 234.352 49.6289C235.126 50.1012 236.375 50.6247 237.237 50.8413L237.232 50.8406Z" fill="#EAA366"/>
<path d="M327.352 115.116L368.916 77.235L350.578 57.0626C334.932 67.5589 320.911 80.3377 309.008 94.946L327.352 115.116Z" fill="white"/>
<path d="M215.378 82.7206C256.951 116.117 261.047 180.13 227.681 221.765L77.1151 100.831C110.484 59.1972 173.799 49.3268 215.378 82.7206Z" fill="#DCDCDC"/>
<path d="M217.634 84.5983C217.927 84.8507 218.216 85.0996 218.507 85.3545C214.556 94.2526 191.797 131.098 158.232 165.981L153.219 161.957C186.935 127.98 211.507 91.7323 217.634 84.5983Z" fill="#F3F1F1"/>
<path d="M217.784 85.1548C217.907 85.239 218.033 85.3208 218.159 85.4025C218.038 85.33 217.912 85.2454 217.784 85.1548Z" fill="#F3F1F1"/>
<path d="M211.452 79.866C212.882 80.7327 215.877 83.8254 217.784 85.1547C176.92 57.7057 120.765 70.756 89.4469 109.832L78.442 100.991C111.344 59.9403 166.474 52.6402 211.452 79.866Z" fill="#F3F1F1"/>
<path d="M216.689 84.3602C216.839 84.4882 218.792 85.8665 218.792 85.8665C251.529 120.145 251.84 177.787 221.376 215.796L218.185 213.23C248.876 174.944 250.18 118.576 216.689 84.3602Z" fill="#F3F1F1"/>
<path d="M215.013 82.8734C216.209 83.5441 217.524 84.8138 218.547 85.7155C180.153 64.3066 134.246 81.8746 101.733 122.442L95.3553 117.316C128.723 75.6874 178.488 62.3552 215.013 82.8734Z" fill="#A7A7A6"/>
<path d="M215.378 82.7206C256.951 116.117 261.047 180.13 227.681 221.765L227.66 221.748C259.653 180.093 255.14 117.285 214.095 84.3175C173.049 51.3526 110.822 60.5492 77.1305 100.848L77.1151 100.831C110.484 59.1972 173.799 49.3268 215.378 82.7206Z" fill="#CECDCE"/>
<path d="M214.835 69.1803C217.91 65.3498 223.501 64.734 227.326 67.8078C231.154 70.8792 231.769 76.4762 228.694 80.3124C225.622 84.1461 220.031 84.7619 216.203 81.6849C212.379 78.6111 211.766 73.0144 214.835 69.1803Z" fill="#DCDCDC"/>
<path d="M214.836 69.1803C216.602 66.9815 219.197 65.8404 221.81 65.8506C219.92 66.2833 218.153 67.3272 216.851 68.9595C213.776 72.7929 214.388 78.3896 218.216 81.4609C219.845 82.7712 221.795 83.408 223.733 83.4181C221.18 83.9941 218.402 83.4517 216.204 81.6849C212.379 78.6111 211.767 73.0144 214.836 69.1803Z" fill="#A7A7A6"/>
<path d="M213.318 78.3131L220.124 83.7745C220.601 84.1591 220.678 84.866 220.294 85.3437L220.26 85.3859C219.875 85.8665 219.171 85.9439 218.693 85.5594L211.887 80.0979C211.41 79.7134 211.33 79.0061 211.715 78.5227L211.749 78.4833C212.134 78.0028 212.84 77.9285 213.318 78.3131Z" fill="#CECDCE"/>
<path d="M212.81 78.0841C212.631 78.1552 212.423 78.2663 212.294 78.4273C211.896 78.9236 211.979 79.6544 212.473 80.0467L219.249 85.4901C219.415 85.623 219.616 85.6876 219.815 85.7174C219.434 85.8742 219.004 85.8167 218.673 85.5569L211.894 80.1132C211.404 79.7155 211.324 78.9851 211.719 78.4913C211.984 78.1671 212.455 78.0066 212.81 78.0841Z" fill="#A7A7A6"/>
<path d="M226.146 69.4664C227.131 69.0002 228.635 70.1189 229.496 71.9593C230.36 73.8 230.263 75.6699 229.275 76.1358C228.284 76.5956 226.782 75.4858 225.919 73.6394C225.055 71.7987 225.155 69.9292 226.146 69.4664Z" fill="#F3F1F1"/>
<path d="M78.1407 97.9354L230.28 220.135C232.123 221.61 232.421 224.332 230.943 226.177C229.468 228.021 226.749 228.316 224.906 226.835L72.7665 104.642C70.9241 103.161 70.6226 100.444 72.1037 98.5989C73.5848 96.7536 76.2983 96.4547 78.1407 97.9354Z" fill="#CECDCE"/>
<path d="M75.4031 96.9925C74.7427 97.2605 74.144 97.6893 73.6677 98.2804C72.193 100.121 72.4877 102.845 74.328 104.32L226.473 226.52C227.277 227.17 228.248 227.477 229.211 227.463C227.817 228.031 226.16 227.843 224.906 226.835L72.7667 104.642C70.9243 103.161 70.6228 100.444 72.1039 98.599C72.9353 97.5584 74.1619 97.0112 75.4031 96.9925Z" fill="#A7A7A6"/>
</svg>
