<svg width="219" height="241" viewBox="0 0 219 241" fill="none" xmlns="http://www.w3.org/2000/svg">
<mask id="mask0_139_670" style="mask-type:luminance" maskUnits="userSpaceOnUse" x="0" y="0" width="219" height="220">
<path d="M0 0H218.941V219.047H0V0Z" fill="white"/>
</mask>
<g mask="url(#mask0_139_670)">
<path d="M0.0611572 109.41C0.0611572 169.819 49.029 218.782 109.438 218.782C169.843 218.782 218.811 169.819 218.811 109.41C218.811 49.0004 169.843 0.0366213 109.438 0.0366213C49.029 0.0325471 0.0611572 49.0004 0.0611572 109.41Z" fill="#ECAF3B"/>
</g>
<mask id="mask1_139_670" style="mask-type:luminance" maskUnits="userSpaceOnUse" x="45" y="157" width="129" height="84">
<path d="M45.3293 157.505H173.628V240.051H45.3293V157.505Z" fill="white"/>
</mask>
<g mask="url(#mask1_139_670)">
<path d="M173.254 219.084C167.843 223.122 162.032 226.659 155.896 229.621C154.963 230.073 154.03 230.505 153.085 230.929C139.761 236.906 124.991 240.227 109.438 240.227C93.8855 240.227 79.1235 236.906 65.7997 230.929C64.8463 230.505 63.9051 230.073 62.9801 229.621C56.8439 226.654 51.0377 223.122 45.6307 219.084C46.5801 197.941 57.8136 179.471 74.45 168.564C84.4978 161.967 96.5177 158.137 109.438 158.137C111.41 158.137 113.358 158.231 115.273 158.402C125.981 159.372 135.91 162.973 144.426 168.564C152.086 173.584 158.601 180.209 163.487 187.954C169.228 197.041 172.732 207.675 173.254 219.084Z" fill="#C3B6F8"/>
</g>
<path d="M144.426 168.564C143.452 175.939 140.201 182.605 135.389 187.812C128.939 194.8 119.706 199.18 109.438 199.18C92.9973 199.18 79.1805 187.93 75.2567 172.708C74.9104 171.359 74.6374 169.969 74.45 168.564C84.4978 161.967 96.5177 158.137 109.438 158.137C111.41 158.137 113.358 158.223 115.281 158.402C115.615 158.43 115.949 158.467 116.279 158.5C116.487 158.52 116.695 158.544 116.899 158.569C117.127 158.593 117.355 158.626 117.579 158.654C117.718 158.667 117.864 158.687 118.003 158.711C118.206 158.732 118.414 158.764 118.626 158.793C118.785 158.813 118.944 158.842 119.111 158.862C119.25 158.883 119.392 158.903 119.531 158.931C119.767 158.968 119.995 159.009 120.231 159.046C121.25 159.217 122.261 159.412 123.255 159.636L123.923 159.783C124.049 159.816 124.184 159.844 124.306 159.881C124.542 159.934 124.787 159.991 125.019 160.052C125.06 160.06 125.092 160.068 125.121 160.076C125.422 160.15 125.72 160.227 126.013 160.313C126.335 160.386 126.649 160.48 126.954 160.569C127.309 160.667 127.655 160.773 128.014 160.875C128.283 160.961 128.556 161.042 128.829 161.132C129 161.189 129.183 161.246 129.35 161.299C129.636 161.393 129.921 161.49 130.198 161.584C130.548 161.706 130.89 161.824 131.229 161.947C131.257 161.963 131.278 161.967 131.298 161.975C131.657 162.101 132.003 162.232 132.349 162.366C132.61 162.472 132.875 162.566 133.14 162.68C133.828 162.949 134.505 163.238 135.173 163.528L136.049 163.927C136.314 164.045 136.579 164.171 136.843 164.294C137.088 164.412 137.324 164.526 137.561 164.644C137.785 164.746 138.001 164.86 138.217 164.97C138.355 165.039 138.502 165.109 138.64 165.186C139.219 165.479 139.781 165.785 140.339 166.09C140.543 166.205 140.751 166.323 140.946 166.433C141.077 166.51 141.203 166.579 141.329 166.649L141.802 166.926L142.283 167.219L142.597 167.407C142.894 167.582 143.187 167.765 143.481 167.953C143.799 168.152 144.112 168.356 144.426 168.564Z" fill="white"/>
<path d="M121.739 143.827V168.022C121.739 174.142 116.732 179.158 110.616 179.158H108.261C102.149 179.158 97.1453 174.142 97.1453 168.022V143.827C97.1453 137.707 102.149 132.7 108.261 132.7H110.616C116.732 132.7 121.739 137.707 121.739 143.827Z" fill="white"/>
<path d="M121.739 143.827V156.629C118.08 158.663 114.201 159.844 110.269 159.844C105.62 159.844 101.191 158.549 97.1453 156.299V143.827C97.1453 137.707 102.149 132.7 108.261 132.7H110.616C116.732 132.7 121.739 137.707 121.739 143.827Z" fill="#DED5ED"/>
<path d="M154.499 101.326C154.499 74.6293 134.794 52.9854 110.481 52.9854C86.1767 52.9854 66.46 74.6293 66.46 101.326C66.46 128.018 86.1767 155.925 110.481 155.925C133.327 155.925 154.499 127.794 154.499 101.326Z" fill="white"/>
</svg>
