<svg width="279" height="260" viewBox="0 0 279 260" fill="none" xmlns="http://www.w3.org/2000/svg">
<path d="M106.729 0.753479H172.054C172.528 0.753479 173.003 0.802236 173.468 0.895317C173.938 0.988399 174.39 1.1258 174.833 1.30753C175.272 1.48926 175.689 1.71089 176.088 1.97683C176.482 2.24278 176.85 2.54419 177.187 2.88105C177.524 3.21792 177.825 3.58581 178.091 3.9803C178.353 4.37478 178.579 4.79586 178.76 5.23468C178.942 5.67349 179.08 6.13003 179.173 6.59544C179.266 7.06527 179.31 7.53511 179.31 8.01382V73.3391C179.31 73.8134 179.266 74.2877 179.173 74.7531C179.08 75.2229 178.942 75.675 178.76 76.1138C178.579 76.5571 178.353 76.9737 178.091 77.3726C177.825 77.7671 177.524 78.135 177.187 78.4719C176.85 78.8088 176.482 79.1102 176.088 79.3717C175.689 79.6376 175.272 79.8637 174.833 80.0454C174.39 80.2271 173.938 80.3645 173.468 80.4576C173.003 80.5507 172.528 80.595 172.054 80.595H106.729C106.25 80.595 105.78 80.5507 105.31 80.4576C104.845 80.3645 104.393 80.2271 103.95 80.0454C103.511 79.8637 103.094 79.6376 102.695 79.3717C102.301 79.1102 101.933 78.8088 101.596 78.4719C101.259 78.135 100.958 77.7671 100.692 77.3726C100.43 76.9737 100.204 76.5571 100.023 76.1138C99.8408 75.675 99.7034 75.2229 99.6103 74.7531C99.5173 74.2877 99.4685 73.8134 99.4685 73.3391V8.01382C99.4685 7.53511 99.5173 7.06527 99.6103 6.59544C99.7034 6.13003 99.8408 5.67349 100.023 5.23468C100.204 4.79586 100.43 4.37478 100.692 3.9803C100.958 3.58581 101.259 3.21792 101.596 2.88105C101.933 2.54419 102.301 2.24278 102.695 1.97683C103.094 1.71089 103.511 1.48926 103.95 1.30753C104.393 1.1258 104.845 0.988399 105.31 0.895317C105.78 0.802236 106.25 0.753479 106.729 0.753479Z" fill="#E4DFF4"/>
<path d="M134.658 50.1131V80.595H171.997C172.475 80.595 172.945 80.5507 173.415 80.4576C173.885 80.3645 174.341 80.2271 174.785 80.0454C175.223 79.8636 175.644 79.642 176.043 79.3761C176.442 79.1101 176.81 78.8132 177.147 78.4763C177.488 78.1394 177.79 77.7715 178.06 77.377C178.326 76.9781 178.552 76.5615 178.738 76.1182C178.924 75.6794 179.066 75.2273 179.164 74.7575C179.257 74.2876 179.31 73.8178 179.31 73.3391V50.1131H134.658Z" fill="#D7CCE5"/>
<mask id="mask0_139_599" style="mask-type:luminance" maskUnits="userSpaceOnUse" x="198" y="0" width="81" height="82">
<path d="M198.462 0H279V81.6987H198.462V0Z" fill="white"/>
</mask>
<g mask="url(#mask0_139_599)">
<path d="M206.139 0.753601H271.465C271.939 0.753601 272.413 0.802358 272.879 0.895439C273.349 0.988521 273.801 1.12593 274.244 1.30766C274.683 1.48939 275.099 1.71101 275.498 1.97695C275.893 2.2429 276.261 2.54431 276.598 2.88117C276.934 3.21804 277.236 3.58593 277.502 3.98042C277.763 4.37491 277.989 4.79599 278.171 5.2348C278.353 5.67361 278.49 6.13015 278.583 6.59556C278.676 7.0654 278.725 7.53524 278.725 8.01394V73.3393C278.725 73.8135 278.676 74.2878 278.583 74.7532C278.49 75.223 278.353 75.6751 278.171 76.114C277.989 76.5572 277.763 76.9739 277.502 77.3728C277.236 77.7673 276.934 78.1352 276.598 78.472C276.261 78.8089 275.893 79.1103 275.498 79.3718C275.099 79.6377 274.683 79.8638 274.244 80.0455C273.801 80.2273 273.349 80.3647 272.879 80.4578C272.413 80.5508 271.939 80.5952 271.465 80.5952H206.139C205.661 80.5952 205.191 80.5508 204.721 80.4578C204.256 80.3647 203.804 80.2273 203.36 80.0455C202.922 79.8638 202.505 79.6377 202.106 79.3718C201.711 79.1103 201.344 78.8089 201.007 78.472C200.67 78.1352 200.368 77.7673 200.103 77.3728C199.841 76.9739 199.615 76.5572 199.433 76.114C199.251 75.6751 199.114 75.223 199.021 74.7532C198.928 74.2878 198.879 73.8135 198.879 73.3393V8.01394C198.879 7.53524 198.928 7.0654 199.021 6.59556C199.114 6.13015 199.251 5.67361 199.433 5.2348C199.615 4.79599 199.841 4.37491 200.103 3.98042C200.368 3.58593 200.67 3.21804 201.007 2.88117C201.344 2.54431 201.711 2.2429 202.106 1.97695C202.505 1.71101 202.922 1.48939 203.36 1.30766C203.804 1.12593 204.256 0.988521 204.721 0.895439C205.191 0.802358 205.661 0.753601 206.139 0.753601Z" fill="#D7CCE5"/>
</g>
<path d="M151.497 123.275L147.84 62.2492C147.796 61.4336 147.676 60.6313 147.476 59.8424C147.281 59.0534 147.011 58.291 146.67 57.5508C146.328 56.8106 145.921 56.1102 145.442 55.4498C144.968 54.7894 144.436 54.1821 143.842 53.6192C143.252 53.0607 142.614 52.5643 141.927 52.1255C141.24 51.6867 140.517 51.3188 139.764 51.0174C139.006 50.716 138.226 50.4899 137.428 50.3392C136.63 50.1841 135.819 50.1087 135.008 50.1131C134.188 50.0998 133.372 50.1619 132.566 50.3082C131.755 50.45 130.97 50.6672 130.203 50.9597C129.436 51.2523 128.705 51.6157 128.005 52.0501C127.309 52.4845 126.657 52.9765 126.059 53.535C125.456 54.0935 124.911 54.7007 124.423 55.3612C123.936 56.0216 123.519 56.7263 123.164 57.4666C122.814 58.2068 122.535 58.9736 122.327 59.767C122.123 60.5648 121.994 61.3715 121.941 62.1915L116.135 163.46C116.121 163.668 116.081 163.876 116.024 164.08C115.962 164.284 115.882 164.479 115.78 164.665C115.674 164.847 115.554 165.02 115.412 165.179C115.27 165.339 115.115 165.481 114.947 165.605C114.774 165.729 114.592 165.835 114.397 165.92C114.202 166.004 113.998 166.066 113.79 166.106C113.582 166.146 113.373 166.163 113.16 166.159C112.948 166.15 112.739 166.123 112.535 166.07L96.3349 161.833C88.0418 159.701 79.6778 159.391 71.2473 160.902C70.7641 160.995 70.2943 161.128 69.8333 161.301C69.3723 161.474 68.9335 161.682 68.508 161.935C68.0869 162.183 67.688 162.467 67.3113 162.786C66.9389 163.105 66.5932 163.455 66.2829 163.836C65.9682 164.213 65.689 164.616 65.4496 165.046C65.2058 165.472 65.002 165.915 64.8335 166.38C64.6695 166.841 64.5454 167.316 64.4612 167.799C64.377 168.286 64.3371 168.774 64.3415 169.266C64.3504 170.148 64.4922 171.008 64.7715 171.846C65.0507 172.683 65.4496 173.459 65.9682 174.173C66.4913 174.886 67.1074 175.502 67.821 176.021C68.5346 176.544 69.3103 176.943 70.148 177.222C74.5095 178.769 78.6539 180.777 82.5722 183.246C86.4904 185.715 90.0896 188.587 93.374 191.854L103.187 201.552C106.556 204.898 109.561 208.546 112.207 212.487C114.854 216.432 117.092 220.594 118.914 224.977C120.735 229.361 122.114 233.882 123.045 238.541C123.976 243.199 124.441 247.902 124.441 252.649H202.656V243.882C202.669 239.033 203.773 234.445 205.967 230.119C208.777 224.556 210.905 218.741 212.345 212.677C213.786 206.614 214.508 200.466 214.499 194.234V161.89C214.504 160.539 214.397 159.191 214.18 157.857C213.963 156.523 213.639 155.211 213.209 153.93C212.78 152.644 212.248 151.403 211.614 150.207C210.98 149.014 210.257 147.875 209.437 146.798C208.622 145.716 207.722 144.715 206.738 143.779C205.759 142.849 204.708 142.002 203.587 141.244C202.465 140.482 201.295 139.817 200.067 139.25C198.84 138.678 197.572 138.212 196.269 137.849L153.589 125.89C152.999 125.717 152.512 125.394 152.13 124.915C151.745 124.436 151.536 123.887 151.497 123.275Z" fill="#C3B6F8"/>
<path d="M122.987 244.52H203.236C203.573 244.52 203.906 244.551 204.234 244.618C204.562 244.684 204.881 244.782 205.191 244.91C205.501 245.039 205.794 245.194 206.073 245.38C206.352 245.566 206.614 245.779 206.849 246.018C207.088 246.253 207.296 246.51 207.483 246.789C207.673 247.069 207.828 247.366 207.957 247.676C208.085 247.986 208.183 248.305 208.249 248.633C208.311 248.961 208.347 249.294 208.347 249.631V259.152H117.876V249.631C117.876 249.294 117.912 248.961 117.974 248.633C118.04 248.305 118.138 247.986 118.266 247.676C118.395 247.366 118.55 247.069 118.736 246.789C118.927 246.51 119.135 246.253 119.375 246.018C119.609 245.779 119.871 245.566 120.15 245.38C120.425 245.194 120.722 245.039 121.032 244.91C121.343 244.782 121.662 244.684 121.99 244.618C122.318 244.551 122.65 244.52 122.987 244.52Z" fill="#E4DFF4"/>
<mask id="mask1_139_599" style="mask-type:luminance" maskUnits="userSpaceOnUse" x="0" y="0" width="81" height="82">
<path d="M0 0H80.4532V81.6987H0V0Z" fill="white"/>
</mask>
<g mask="url(#mask1_139_599)">
<path d="M7.26034 0.753601H72.5856C73.0599 0.753601 73.5342 0.802358 73.9996 0.895439C74.4694 0.988521 74.9215 1.12593 75.3604 1.30766C75.8036 1.48939 76.2203 1.71101 76.6192 1.97695C77.0137 2.2429 77.3816 2.54431 77.7184 2.88117C78.0553 3.21804 78.3567 3.58593 78.6182 3.98042C78.8841 4.37491 79.1102 4.79599 79.2919 5.2348C79.4737 5.67361 79.6111 6.13015 79.7041 6.59556C79.7972 7.0654 79.8416 7.53524 79.8416 8.01394V73.3393C79.8416 73.8135 79.7972 74.2878 79.7041 74.7532C79.6111 75.223 79.4737 75.6751 79.2919 76.114C79.1102 76.5572 78.8841 76.9739 78.6182 77.3728C78.3567 77.7673 78.0553 78.1352 77.7184 78.472C77.3816 78.8089 77.0137 79.1103 76.6192 79.3718C76.2203 79.6377 75.8036 79.8638 75.3604 80.0455C74.9215 80.2273 74.4694 80.3647 73.9996 80.4578C73.5342 80.5508 73.0599 80.5952 72.5856 80.5952H7.26034C6.78163 80.5952 6.3118 80.5508 5.84196 80.4578C5.37655 80.3647 4.92001 80.2273 4.4812 80.0455C4.04239 79.8638 3.6213 79.6377 3.22682 79.3718C2.83233 79.1103 2.46444 78.8089 2.12757 78.472C1.79071 78.1352 1.4893 77.7673 1.22335 77.3728C0.957407 76.9739 0.735785 76.5572 0.554055 76.114C0.372324 75.6751 0.23492 75.223 0.141838 74.7532C0.0487571 74.2878 0 73.8135 0 73.3393V8.01394C0 7.53524 0.0487571 7.0654 0.141838 6.59556C0.23492 6.13015 0.372324 5.67361 0.554055 5.2348C0.735785 4.79599 0.957407 4.37491 1.22335 3.98042C1.4893 3.58593 1.79071 3.21804 2.12757 2.88117C2.46444 2.54431 2.83233 2.2429 3.22682 1.97695C3.6213 1.71101 4.04239 1.48939 4.4812 1.30766C4.92001 1.12593 5.37655 0.988521 5.84196 0.895439C6.3118 0.802358 6.78163 0.753601 7.26034 0.753601Z" fill="#E69800"/>
</g>
<rect x="27.8517" y="50.1852" width="36.8522" height="9.36131" rx="4.68066" transform="rotate(-44.4109 27.8517 50.1852)" fill="white"/>
<rect x="26.1222" y="35.3673" width="21.0834" height="9.36131" rx="4.68066" transform="rotate(45.3451 26.1222 35.3673)" fill="white"/>
</svg>
